<svg width="20" height="22" viewBox="0 0 20 22" fill="none" xmlns="http://www.w3.org/2000/svg">
<path fill-rule="evenodd" clip-rule="evenodd" d="M5.50008 3.62344C4.30508 3.62344 3.33342 4.67964 3.33342 5.97861C3.33342 12.6709 8.34258 18.1168 14.5001 18.1168C15.6943 18.1168 16.6667 17.0606 16.6667 15.7616C16.6667 15.6611 16.6609 15.5623 16.6493 15.4645L12.7993 14.5043C12.7226 14.6637 12.6384 14.8368 12.5618 14.998C12.1818 15.7861 11.9068 16.3586 11.2051 16.0515C8.45008 15.0007 6.20092 12.555 5.22175 9.52404C4.92425 8.81296 5.49092 8.49048 6.20925 8.08286C6.35508 7.99952 6.51258 7.90984 6.65675 7.82832L5.77342 3.64246C5.68092 3.62978 5.59092 3.62344 5.50008 3.62344ZM14.5001 19.9284C7.42342 19.9284 1.66675 13.6709 1.66675 5.9786C1.66675 3.6805 3.38591 1.81177 5.50008 1.81177C5.71675 1.81177 5.93091 1.8317 6.13841 1.87065C6.34092 1.90597 6.54425 1.96214 6.74258 2.03641C7.01341 2.13877 7.21758 2.38607 7.28175 2.69043L8.42258 8.09282C8.48592 8.38993 8.40675 8.70154 8.21175 8.92256C8.09841 9.05119 8.09591 9.0539 7.06258 9.64179C7.89925 11.6111 9.35342 13.1863 11.1284 14.065C11.6701 12.9408 11.6734 12.9372 11.7917 12.814C11.9951 12.6021 12.2834 12.5196 12.5551 12.5848L17.5259 13.8249C17.8051 13.8947 18.0326 14.1157 18.1259 14.4101C18.1942 14.6239 18.2459 14.8449 18.2801 15.0723C18.3151 15.296 18.3334 15.5279 18.3334 15.7616C18.3334 18.0597 16.6134 19.9284 14.5001 19.9284Z" fill="#BC2010"/>
<mask id="mask0" mask-type="alpha" maskUnits="userSpaceOnUse" x="1" y="1" width="18" height="19">
<path fill-rule="evenodd" clip-rule="evenodd" d="M5.50008 3.62344C4.30508 3.62344 3.33342 4.67964 3.33342 5.97861C3.33342 12.6709 8.34258 18.1168 14.5001 18.1168C15.6943 18.1168 16.6667 17.0606 16.6667 15.7616C16.6667 15.6611 16.6609 15.5623 16.6493 15.4645L12.7993 14.5043C12.7226 14.6637 12.6384 14.8368 12.5618 14.998C12.1818 15.7861 11.9068 16.3586 11.2051 16.0515C8.45008 15.0007 6.20092 12.555 5.22175 9.52404C4.92425 8.81296 5.49092 8.49048 6.20925 8.08286C6.35508 7.99952 6.51258 7.90984 6.65675 7.82832L5.77342 3.64246C5.68092 3.62978 5.59092 3.62344 5.50008 3.62344ZM14.5001 19.9284C7.42342 19.9284 1.66675 13.6709 1.66675 5.9786C1.66675 3.6805 3.38591 1.81177 5.50008 1.81177C5.71675 1.81177 5.93091 1.8317 6.13841 1.87065C6.34092 1.90597 6.54425 1.96214 6.74258 2.03641C7.01341 2.13877 7.21758 2.38607 7.28175 2.69043L8.42258 8.09282C8.48592 8.38993 8.40675 8.70154 8.21175 8.92256C8.09841 9.05119 8.09591 9.0539 7.06258 9.64179C7.89925 11.6111 9.35342 13.1863 11.1284 14.065C11.6701 12.9408 11.6734 12.9372 11.7917 12.814C11.9951 12.6021 12.2834 12.5196 12.5551 12.5848L17.5259 13.8249C17.8051 13.8947 18.0326 14.1157 18.1259 14.4101C18.1942 14.6239 18.2459 14.8449 18.2801 15.0723C18.3151 15.296 18.3334 15.5279 18.3334 15.7616C18.3334 18.0597 16.6134 19.9284 14.5001 19.9284Z" fill="white"/>
</mask>
<g mask="url(#mask0)">
</g>
</svg>
