<svg width="25" height="22" viewBox="0 0 25 22" fill="none" xmlns="http://www.w3.org/2000/svg">
<mask id="mask0" mask-type="alpha" maskUnits="userSpaceOnUse" x="2" y="2" width="21" height="18">
<path fill-rule="evenodd" clip-rule="evenodd" d="M17.0654 12.6845H9.12997L7.42476 7.24825H20.1904L17.0654 12.6845ZM21.9613 6.29507C21.579 5.75688 20.9165 5.43614 20.1894 5.43614H6.85605L6.21334 3.38577C6.08938 2.99164 5.67792 2.71802 5.20813 2.71802H3.1248C2.54875 2.71802 2.08313 3.12392 2.08313 3.62406C2.08313 4.12419 2.54875 4.5301 3.1248 4.5301H4.4123L7.32792 13.8288C7.45188 14.2229 7.86334 14.4966 8.33313 14.4966H17.7081C18.1029 14.4966 18.4633 14.3027 18.6404 13.9955L22.0529 8.05822C22.379 7.49195 22.3435 6.83326 21.9613 6.29507ZM7.81253 16.3086C6.95003 16.3086 6.25003 16.9166 6.25003 17.6677C6.25003 18.4188 6.95003 19.0268 7.81253 19.0268C8.67503 19.0268 9.37503 18.4188 9.37503 17.6677C9.37503 16.9166 8.67503 16.3086 7.81253 16.3086ZM16.6667 17.6677C16.6667 16.9166 17.3667 16.3086 18.2292 16.3086C19.0917 16.3086 19.7917 16.9166 19.7917 17.6677C19.7917 18.4188 19.0917 19.0268 18.2292 19.0268C17.3667 19.0268 16.6667 18.4188 16.6667 17.6677Z" fill="white"/>
</mask>
<g mask="url(#mask0)">
<rect width="25" height="21.745" fill="#BC2010"/>
</g>
</svg>
